<svg xmlns="http://www.w3.org/2000/svg"><symbol id="facebook" viewBox="0 0 256 256"><path fill="#dac6bb" d="M147.4 254.2V138.9h38.8l5.5-44.9h-44.3V65.5c0-13.3 3.7-21.8 22.5-21.8h23.6V3.6a302.3 302.3 0 0 0-34.6-1.8c-34.5 0-57.6 20.6-57.6 59.5V94H62.5v44.9h38.8v115.3z"/></symbol><symbol id="pinterest" viewBox="0 0 256 256"><path fill="#dac6bb" d="M133.6 1.8C65.1 1.8 30.1 51.2 30.1 92.7c0 24.4 9.3 46.8 29.7 54.7a5.7 5.7 0 0 0 7.9-3.3l2-11.8c1.3-4 .6-4.6-1.3-7.9-6-7.3-9.9-15.8-9.9-28.4 0-36.9 27-69.8 71.1-69.8 39.6 0 60.7 24.4 60.7 56 0 42.2-18.5 76.4-46.2 76.4-15.1 0-26.3-11.8-22.4-27.6 4-17.8 12.6-37.6 12.6-50.8s-6-22.4-19.8-22.4c-15.8 0-27.7 16.5-27.7 38.2a54.6 54.6 0 0 0 4.6 22.4l-19.1 79.1a166.1 166.1 0 0 0 1.3 56.7l2-.7c1.3-1.9 20.4-24.3 26.4-47.4l10.5-40.2c4.6 9.9 19.1 18.4 34.9 18.4 46.8 0 78.5-42.1 78.5-99.5 0-43.5-36.9-83-92.3-83z"/></symbol><symbol id="youtube" viewBox="0 0 256 256"><path fill="#dac6bb" d="M247 67.4c-2.8-10.4-11.8-18.8-22.3-21.5-23.6-6.3-166.1-7-193.2 0C21.1 48.6 12.1 57 9.3 67.4c-6.3 26.4-7 93.8 0 120.9 2.8 10.5 11.8 18.8 22.2 21.6 25 6.9 167.5 6.9 193.2 0 10.5-2.8 19.5-11.1 22.3-21.6 6.2-25 6.2-95.2 0-120.9zm-143.9 97.3V91l64.6 36.9z"/></symbol><symbol id="search" viewBox="0 0 256 256"><path fill="#7e7e7e" d="M251.6 238.8l-74.4-74.7a98.7 98.7 0 1 0-13 13.1l74.4 74.4a9 9 0 0 0 12.7 0h.1a9.1 9.1 0 0 0 .3-12.8zM20 101a81.1 81.1 0 1 1 81.1 81.1A81.1 81.1 0 0 1 20 101z"/></symbol><symbol id="twitter" viewBox="0 0 256 256"><path fill="#dac6bb" d="M255.2 48.2a53.8 53.8 0 0 1-29.6 8.9 53.5 53.5 0 0 0 23.7-29.6A53.5 53.5 0 0 1 216 40.1a53.2 53.2 0 0 0-90.2 48A147.9 147.9 0 0 1 18.6 33.4a53.1 53.1 0 0 0 16.2 69.5 50.9 50.9 0 0 1-23.6-5.2 53.3 53.3 0 0 0 41.4 51.1 52.8 52.8 0 0 1-23.7.7 53.3 53.3 0 0 0 49.6 37A147.7 147.7 0 0 1 .8 207.9 147.8 147.8 0 0 0 229.3 75.5a142.6 142.6 0 0 0 25.9-27.3"/></symbol><symbol id="toggle-open" viewBox="0 0 256 256"><path fill="#7e7e7e" d="M10.1 28.2H10a9.1 9.1 0 0 0 0 18.2h236a9.1 9.1 0 0 0 0-18.2H10.1zm0 90.7H10a9.1 9.1 0 0 0 0 18.2h236a9.1 9.1 0 0 0 0-18.2H10.1zm0 90.7H10a9.1 9.1 0 0 0 0 18.2h236a9.1 9.1 0 1 0 0-18.2H10.1z"/></symbol><symbol id="toggle-close" viewBox="0 0 256 256"><path fill="#7e7e7e" d="M246.7 24a10.4 10.4 0 0 0 3.3-7.8A11.1 11.1 0 0 0 238.8 5a11.6 11.6 0 0 0-8 3.2l-103.7 104-104-104A10.6 10.6 0 0 0 15.3 5a11.3 11.3 0 0 0-8 3.2 11.4 11.4 0 0 0-3.2 8A10.6 10.6 0 0 0 7.3 24l103.9 104L7.3 231.8a11.3 11.3 0 0 0-3.2 8 10.6 10.6 0 0 0 3.2 7.8 11 11 0 0 0 8 3.4 10.4 10.4 0 0 0 7.8-3.4l104-103.8 103.7 103.8a11.4 11.4 0 0 0 8 3.4 10.8 10.8 0 0 0 7.9-3.4 10.4 10.4 0 0 0 3.3-7.8 10.9 10.9 0 0 0-3.3-8L142.9 128z"/></symbol><symbol id="bag" viewBox="0 0 256 256"><path d="M223.5 212.6l-9.1-135.1a6.9 6.9 0 0 0-6.8-6.4h-31.8V55.2c0-28.2-21.4-50.9-47.8-50.9S80.2 27 80.2 55.2v15.9H48.4a6.9 6.9 0 0 0-6.8 6.4l-9.1 135.1v.5c0 21.8 16.8 38.6 38.6 38.6h113.8c21.8 0 38.6-16.8 38.6-38.6zM93.9 55.2c0-20.5 15.4-37.3 34.1-37.3s34.1 16.4 34.1 37.3v15.9H93.9zm91 182.9H71.1a24.6 24.6 0 0 1-25-25l8.7-128.3h146.4l8.7 128.3a24.6 24.6 0 0 1-25 25z"/></symbol><symbol id="instagram" viewBox="0 0 256 256"><path fill="none" stroke="#dac6bb" stroke-width="22.39" d="M74 13.7h108A60.3 60.3 0 0 1 242.3 74v108a60.3 60.3 0 0 1-60.3 60.3H74A60.3 60.3 0 0 1 13.7 182V74A60.3 60.3 0 0 1 74 13.7z"/><circle cx="128" cy="128" r="53.3" fill="none" stroke="#dac6bb" stroke-width="22.39"/><circle cx="195.2" cy="60.8" r="14.7" fill="#dac6bb" stroke="#dac6bb" stroke-miterlimit="10" stroke-width=".77"/></symbol><symbol id="arrow" viewBox="0 0 15 24"><path d="M2.8 24L0 21.2 9.3 12 0 2.8 2.8 0 15 12z"/></symbol></svg>
