<svg id="Layer_1" data-name="Layer 1" xmlns="http://www.w3.org/2000/svg" width="192" height="192" viewBox="0 0 192 192"><title>logo-192</title><path d="M114,105l2.7-2,2-1.4,2.9-2.2,2.6-1.9,1.3-1.1,2.8-2.5,1.1-1.2v-.2a9.9,9.9,0,0,1,1.2-5.1,34.2,34.2,0,0,1,4.8-7.7c1-1.3,2.2-2.6,3.3-3.9a40.7,40.7,0,0,1,4.2-4.1c1.1-.9,2.2-1.8,3.4-2.6a16.4,16.4,0,0,1,4.3-2.4,16,16,0,0,1,2.1-.5c.6-.1.7.2.6.5a5,5,0,0,1-.2,1.2,19.5,19.5,0,0,1-1.4,3.8,48.5,48.5,0,0,1-2.9,4.9L146.5,80c-1.1,1.3-2.2,2.7-3.3,3.9l-3.9,4-3.6,2.9a15.1,15.1,0,0,1-3.5,2,4.6,4.6,0,0,1-2.3.5l-.2.2a28.3,28.3,0,0,1-2.5,2.4L123.6,99l-2.7,2-2.5,1.8-2,1.5a18.8,18.8,0,0,0-2.3,1.6l-.6.3c-.6.3-.7.9-1,1.4s-1.3,2.6-2.1,4c.2-.2.4-.2.4-.3a16.9,16.9,0,0,1,3.6-3,20.7,20.7,0,0,1,3.2-1.9,31.1,31.1,0,0,1,4.1-2,36.2,36.2,0,0,1,5.6-1.7,27.6,27.6,0,0,1,5.7-.6c.5,0,.5.3.4.6a14.2,14.2,0,0,1-4.2,5.5,29.5,29.5,0,0,1-4.5,3.4c-1.2.7-2.4,1.5-3.7,2.1l-4,2-3.5,1.2-3,1-3,.6h-1c-.1.1-.2.2-.2.3s-1.7,2.8-2.7,4.2-2.7,3.9-4.1,5.9l-2.8,3.2a.2.2,0,0,1-.2.2H96c-.1-.1-.2-.4-.1-.5l.6-.8c1.2-1.4,2.4-2.7,3.5-4.2s3.4-4.9,5-7.5l3.1-5.3,3-5.4a10.4,10.4,0,0,1,.4-1,.3.3,0,0,0,0-.4,16.5,16.5,0,0,1-2-3.1,29.5,29.5,0,0,1-1.7-5c-.3-1.2-.5-2.5-.7-3.8a23.2,23.2,0,0,1-.5-3.8c-.1-1-.1-2.1-.2-3.1a19.3,19.3,0,0,1,.1-2.4V84.5l.3-2.9c.1-.7.3-1.5.4-2.2l.6-2.2a15,15,0,0,1,2-4c.4-.5.8-.5,1.1,0a11,11,0,0,1,1.4,2.1,20.6,20.6,0,0,1,1.2,2.6c.3,1,.6,2,.8,2.9s.7,3,1,4.5.4,2.5.6,3.8.3,2.2.4,3.2a12.1,12.1,0,0,1,.1,1.9v3.5l1.2-2.6c.5-1.3,1.1-2.5,1.6-3.7s.8-1.8,1.1-2.7l1.5-3.6a2.8,2.8,0,0,0,.4-1.2c.1-.2-.1-.5-.3-.8l-1.5-2.8-1-2.4a18.3,18.3,0,0,1-.8-2.5,27.3,27.3,0,0,1-1-4.1,25.8,25.8,0,0,1-.4-3.8,23.5,23.5,0,0,1-.1-2.6c.1-1.2.2-2.4.4-3.5a11.7,11.7,0,0,1,.5-2,7.5,7.5,0,0,1,.5-1.6c.1-.3.3-.4.7-.3a3.7,3.7,0,0,1,2.2,1.7,10.8,10.8,0,0,1,1.9,3.5c.5,1.2.8,2.5,1.2,3.7l.9,4.1.3,2.9.2.4.3-1.1c.4-1.1.7-2.3,1.1-3.4s.5-1.9.7-2.8l.6-2.4a20.5,20.5,0,0,0,.5-2.4,23.8,23.8,0,0,0,.5-2.6,30.3,30.3,0,0,0,.2-3.1,13.3,13.3,0,0,0,0-2,9.7,9.7,0,0,1-3.8-3.1,15.4,15.4,0,0,1-2.3-3.9,22.3,22.3,0,0,1-1.4-6.7,21.1,21.1,0,0,1,.2-2.5,6.2,6.2,0,0,1,.9-2.7c.2-.4.4-.5.9-.3a13.6,13.6,0,0,1,3.7,3.1,14.5,14.5,0,0,1,2,3.4c.2.4.3.8.5,1.3s.3-1,.4-1.4.6-1.9,1-2.9l1.5-3.5a25.3,25.3,0,0,1,4-6.2l.6-.6c.5-.3.8-.3.9.3a5.7,5.7,0,0,1,.3,1.8,10.8,10.8,0,0,1-.4,3.6c-.3,1.2-.6,2.4-1,3.6l-1.5,3.9a30.2,30.2,0,0,1-4.4,7.1c-.1.2-.3.2-.4.4l-.2.2a19.3,19.3,0,0,1-.5,4.2,8.1,8.1,0,0,0-.1,2.2v1.5c-.1,1-.3,2-.4,2.9l-.6,2.9-.6,3.1-.5,1.7v.3l.9-1.2c1.1-1.4,2.1-2.8,3.3-4.2l3.6-4,2.7-2.5a16.7,16.7,0,0,1,1.6-1.2c.2-.2.4-.4.7-.3a.9.9,0,0,1,.4.9,15.1,15.1,0,0,1-.7,3.7,29.9,29.9,0,0,1-1,3.2c-.7,1.6-1.4,3.2-2.2,4.7a44.4,44.4,0,0,1-4.1,6.2,41.9,41.9,0,0,1-3.9,4.5,40.1,40.1,0,0,1-3.9,3.3l-2.2,1.3c0,.1-.1.2-.1.3L122.4,86l-1.6,3.9-1.6,3.7c-.6,1.2-1.1,2.4-1.6,3.6l-2,4.2-1.6,3.3a.3.3,0,0,0-.1.2Zm16.3-13.6h.1a5.4,5.4,0,0,1,.5-1.1,41.5,41.5,0,0,1,3.5-5.7,45.1,45.1,0,0,1,4.5-5.3c1.5-1.7,3-3.3,4.6-4.8l2.8-2.5,2.6-2.1,1.9-1.5,1.4-1.3-1.3.3a21.5,21.5,0,0,0-4.9,2.8l-4.1,3.5a37.7,37.7,0,0,0-4.3,4.6c-1.1,1.4-2.2,2.7-3.2,4.1a24,24,0,0,0-2.7,4.6,23.3,23.3,0,0,0-1.1,2.8A8,8,0,0,0,130.3,91.4Zm-16.5,10.8h.1a20.9,20.9,0,0,1-.1-2.5l-.3-4.6c-.3-2.3-.5-4.5-.7-6.8s-.3-2.3-.4-3.5l-.6-3.2a17.7,17.7,0,0,0-.4-2l-.6-2.9-.3-.9h-.1v9.2c0,1.3.1,2.7.2,4.1s.2,2.1.4,3.1.5,2.3.8,3.4.5,2,.8,3l1,3.1A1.4,1.4,0,0,0,113.8,102.2ZM110,74.3l-.3.5-1.2,2.8a18.9,18.9,0,0,0-.5,2.3,15.5,15.5,0,0,0-.4,2.1l-.3,3.2a18.2,18.2,0,0,0,0,3.3,38.7,38.7,0,0,0,.3,4.8c.1,1.1.3,2.3.5,3.4a28.5,28.5,0,0,0,1.4,5,13.8,13.8,0,0,0,1.8,3.9l.8,1.1,1.4-2.7-1.3-1.4a13.7,13.7,0,0,1-2.6-5.1,19.7,19.7,0,0,1-.7-2.6,15.2,15.2,0,0,1-.6-4.2c-.1-1.1-.1-2.1-.1-3.1s0-2,.1-3a18,18,0,0,1,.2-2.2l.3-1.9.3-1.6c.1-.6.3-1.3.4-1.9A8.1,8.1,0,0,0,110,74.3Zm.8.2h-.1a18.2,18.2,0,0,1,.7,2.5L112,80a18.4,18.4,0,0,1,.5,2.5c.2,1,.4,2,.5,3a24,24,0,0,1,.3,2.8l.3,3.4c.1,1.6.4,3.1.5,4.7s.1,2.7.1,4.1.1,1,.2,1.4a1.6,1.6,0,0,0,.4-.7,5.7,5.7,0,0,0,.8-2.5V95.4a7.6,7.6,0,0,0-.1-1.5,21.1,21.1,0,0,0-.2-2.6L115,88a59.9,59.9,0,0,0-1.3-6.1,29.9,29.9,0,0,0-1-3.2,23.3,23.3,0,0,0-1.1-2.8A10,10,0,0,0,110.8,74.5ZM151,68.9h0l-1.7,1.4-3.6,2.9-3.2,3c-1,.9-1.8,1.9-2.7,2.8L137,82.2a31,31,0,0,0-3.5,4.6,15.9,15.9,0,0,0-1.3,2.2l-1.1,1.9.7-.6,2.9-3.4,2.4-2.6,3.2-3.6c1.1-1.1,2.1-2.3,3.1-3.4l2.6-2.7,2.7-2.9Zm-37.4,34.4c-.4-1.4-.9-2.8-1.3-4.2l-.9-3a13.1,13.1,0,0,1-.6-2.7c-.3-1.5-.5-3.1-.7-4.6s-.2-2.3-.2-3.5V77.7c-.1,0-.1.1-.1.2l-.6,2.8c-.2,1.5-.4,2.9-.5,4.4s0,2.1,0,3.1a21.9,21.9,0,0,0,.4,5.1,26.2,26.2,0,0,0,.9,3.8,11.7,11.7,0,0,0,1,2.6,9.7,9.7,0,0,0,1.9,2.9Zm17.5-11.7h.1l.9-.5,2.3-2.2c1.1-1,2.3-1.9,3.3-2.9l4.4-4.5c1.1-1.2,2.3-2.3,3.4-3.6s2.3-3,3.4-4.6,1.8-2.9,2.7-4.4h-.1l-.2.2L149.9,71l-3.4,3.6-3.6,4c-1.6,1.7-3.2,3.4-4.7,5.2l-2.4,2.6-3,3.5C132.3,90.5,131.7,91,131.1,91.6Zm-.5,13.1h-.1l-.5.2-1.3.7-2.7,1.3-1.9.9-3.3,1.6-2.7,1.4-3.2,1.8-2.2,1.2-2.8,1.6-2.1,1c-.1,0-.1.1-.1.2l3.4-1,3.3-1.1,2.5-1.1,2.1-1.1,1.5-.8,2.8-1.6c.9-.6,2-1.1,2.9-1.8l2.6-1.9Zm-7.8-22.1.2-.3a19.5,19.5,0,0,1,.8-2.2c.1-.2,0-.3-.1-.4a11.8,11.8,0,0,1-1.7-2.2,25.8,25.8,0,0,1-1.4-3.9,20,20,0,0,1-.9-3.5c-.3-1.6-.5-3.2-.7-4.8v-2a7.4,7.4,0,0,1,0-2.1,12.3,12.3,0,0,1,.2-2c0-.2.1-.3.1-.4h-.2l-.3.8c-.1.6-.3,1.2-.4,1.9a20.6,20.6,0,0,0-.3,2.6c-.1,1.2,0,2.3,0,3.4a10.9,10.9,0,0,0,.1,1.8c.2,1.4.5,2.7.8,4a13.3,13.3,0,0,0,1,3.4c.5,1.4,1.2,2.9,1.8,4.3Zm9.4,20.6h-.5l-3.3.3-3.4.8-1.7.5-2.7,1.1L118,107c-1.3.8-2.5,1.5-3.7,2.4a18.4,18.4,0,0,0-4.1,3.8,4.4,4.4,0,0,0-.8,1.1l2.1-1.5,3.3-2.4,2.1-1.3a40.7,40.7,0,0,1,5.5-2.8l3.1-1.1,5.3-1.4A5.9,5.9,0,0,0,132.2,103.2Zm-7.1-24.4h.1a8.1,8.1,0,0,0,1-.9,45.7,45.7,0,0,0,5.6-6c1.4-1.8,2.8-3.7,4.1-5.6a37.7,37.7,0,0,0,2.8-4.8,21.7,21.7,0,0,0,1.5-3.5,1.9,1.9,0,0,0,.2-.7h-.1a2,2,0,0,1-.4.8l-3.1,5.1c-1,1.5-2.1,2.9-3.2,4.4l-2.9,3.7L128,74.7l-1.8,2c-.3.2-.6.3-.6.7s-.1.2-.1.3A7.6,7.6,0,0,0,125.1,78.8ZM152,69.1a5.6,5.6,0,0,0-.5.8,12.8,12.8,0,0,1-1.1,2c-.9,1.4-1.9,2.9-2.9,4.2a48.2,48.2,0,0,1-3.6,4.3c-1.3,1.5-2.7,2.8-4.1,4.2l-4,3.9-2.2,1.8L131.7,92h-.1l1.2-.5,3.1-2a20.9,20.9,0,0,0,2.8-2.4,39.7,39.7,0,0,0,3-2.8c1.2-1.3,2.4-2.7,3.5-4.1a39.7,39.7,0,0,0,4.9-7.2A20.9,20.9,0,0,0,152,69.1Zm-28.2,9.8c-1.2-6.3-2.8-12.5-4.3-18.7-.1,1-.1,2.1-.1,3.1s.2,2.9.4,4.4a28.3,28.3,0,0,0,1,4.7,34.5,34.5,0,0,0,1.4,4.2A6,6,0,0,0,123.8,78.9Zm.5,2h.1a29.5,29.5,0,0,0,6.8-5.9,49.2,49.2,0,0,0,5.4-7.3,38.9,38.9,0,0,0,3.7-8.3h-.1l-1.7,3.4c-1,1.7-2,3.4-3.1,5l-2.7,3.6a31.1,31.1,0,0,1-2.3,2.8L127.9,77l-2.3,2.1a2.4,2.4,0,0,0-.8.6Zm1.8-5h.1l.9-1c4.5-5.4,8.9-10.9,12.3-17l-1,1.2-2.7,3.4-3.5,4.1L129.4,70c-.6.9-1.1,1.8-1.7,2.6a17.4,17.4,0,0,0-1.1,1.8C126.4,74.9,126.3,75.4,126.1,75.9Zm-17.3,39.5h.2l1.9-1,2.8-1.7,2.5-1.3,2.9-1.6,2-1.1,2.6-1.3,1.5-.7,2.5-1.2,1.3-.6h-.7l-2.7.7-2.7.9-2.4,1.1-2.6,1.4-3.8,2.3-2.5,1.8Zm22.7-10.7h-.1c-1.2,1.1-2.5,2.1-3.8,3.1a23.9,23.9,0,0,1-4.3,2.7l-2.8,1.6-2.5,1.4-2.7,1.3-3.3,1.2-2.7.8-1.5.3c-.5,0-.6.3-.8.7l1.6-.3,5.5-1.6,4.5-1.8,4.1-2.1a35.1,35.1,0,0,0,4-2.7,25,25,0,0,0,3.9-3.4Zm9.1-48.9h0l-1.3,1.1c-1.5,1.5-3.1,3-4.5,4.5s-2.4,2.9-3.6,4.4a23.3,23.3,0,0,0-3.6,5.6l-.3,1.1c.7-1,1.3-2,2-2.9s3-3.6,4.5-5.4l2.6-3.1,2.8-3.5Zm-10.7-4.1a19.1,19.1,0,0,0-2.7-11.4,31.5,31.5,0,0,0-2.2-2.9,18.3,18.3,0,0,0,.8,2.5l1.5,4c.4,1.2.9,2.3,1.4,3.5s.5,1.8.8,2.7A9.4,9.4,0,0,0,129.9,51.7Zm-6.2-15.2h0a12.4,12.4,0,0,0-.5,4.3,19,19,0,0,0,1,4.6,26.4,26.4,0,0,0,1.8,3.8,13.8,13.8,0,0,0,2.8,3.1l.7.4C125.5,47.9,124.1,42.4,123.7,36.5Zm7.8,11.2a.1.1,0,0,1,.1-.1l1.9-2.6a36,36,0,0,0,2.6-5.2c.7-1.6,1.1-3.2,1.7-4.7a21.3,21.3,0,0,0,.7-4.4v-1c-.2,0-.2.1-.2.2a8,8,0,0,1-.3,1.5,31.1,31.1,0,0,1-1.1,4.1c-.3,1-.8,2-1.2,3s-1.5,3.3-2.3,4.9-1.1,1.9-1.6,2.8S131.2,47,131.5,47.7Zm-.2-1.5a8.3,8.3,0,0,0,.8-1.2c.7-1.5,1.5-2.9,2.1-4.3s1.2-2.7,1.8-4.1.8-2.4,1.2-3.6.3-1.2.5-1.9h-.2c-.6,1.3-1.3,2.6-2,3.9s-1.5,3.4-2.2,5.1-1.1,2.7-1.6,4A4.5,4.5,0,0,0,131.3,46.2Zm-2.2,5h.1c-.2-.6-.3-1.2-.5-1.7a18.3,18.3,0,0,0-.8-2.5c-.6-1.8-1.3-3.5-2-5.3l-1.5-4c0-.1-.1-.2-.1-.3v1.3l.6,3a25.4,25.4,0,0,0,1,3.7,23,23,0,0,0,2,4.2Zm-8.9,7.9h-.1a47.9,47.9,0,0,1,4.6,18.2c.2-.6.6-1.1.5-1.8a26.6,26.6,0,0,1-.3-2.8l-.6-3.7c-.2-1-.4-2.1-.7-3.1s-.9-2.5-1.4-3.7a9.2,9.2,0,0,0-1.6-2.7Zm0,1.6h0c1.4,5.8,2.7,11.7,4,17.4a47.6,47.6,0,0,0-3.7-16.9ZM138,29.3c-2.2,1.5-6.9,11.8-6.7,14.6,1-2.4,2-4.9,3.1-7.4S136.8,31.7,138,29.3Zm-13.3,6.9a24.3,24.3,0,0,1,4.4,6.7,20.8,20.8,0,0,1,1.3,7.9v-.2a29.4,29.4,0,0,0,0-4.2,19.8,19.8,0,0,0-1-4.2,19.6,19.6,0,0,0-1.7-3.2A13.8,13.8,0,0,0,124.7,36.2Z" fill="#dac6bb"/><path d="M138,29.3c-1.2,2.4-2.5,4.8-3.6,7.2s-2.1,5-3.1,7.4" fill="#dac6bb"/><path d="M102.8,126.8,86.5,169.3H83.1L25.1,30.9V133.8c0,8.5.4,14.7,1.3,18.6a12.6,12.6,0,0,0,5.5,8.6c2.9,1.8,7.6,3.1,14,3.8v4.3c-5.6-.5-13.3-.7-23.2-.7a184.2,184.2,0,0,0-18.7.7v-4.3c4.7-.7,8.2-2,10.4-3.7s3.8-4.4,4.5-8.1,1.2-9.3,1.2-16.6V39.7c0-5.4-.4-9.4-1.2-11.8A6.9,6.9,0,0,0,14.4,23c-2.2-.9-5.7-1.5-10.4-1.8V16.9a184.2,184.2,0,0,0,18.7.7c13.2,0,24.5-.2,34-.7l43.4,104.7m2.7,5.2,35.5-92.9,0-12.9,1.3-3.4h15.3c14.6,0,25.8-.2,33.7-.7v4.3q-7.3.4-10.5,1.8a7,7,0,0,0-4.4,4.9c-.8,2.4-1.2,6.4-1.2,11.8V146.3c0,5.4.4,9.4,1.2,11.8a7.1,7.1,0,0,0,4.5,5,40.3,40.3,0,0,0,10.4,1.7v4.3c-7.9-.5-19.1-.7-33.7-.7s-26.7.2-34,.7v-4.3a46.5,46.5,0,0,0,11.3-1.7,7.7,7.7,0,0,0,4.8-5c.9-2.4,1.3-6.4,1.3-11.8V33.9m0-12.9M100.1,121.6" fill="#dac6bb"/></svg>