<svg id="Layer_1" data-name="Layer 1" xmlns="http://www.w3.org/2000/svg" width="16" height="16" viewBox="0 0 16 16"><title>logo-16</title><path d="M9.3,8.8h.4l.2-.2.2-.2h.1a.2.2,0,0,0,.2-.2c.1,0,.1,0,.1-.1h0V7.4l.4-.6.3-.4.4-.3.2-.2.4-.2h.2c0,.1-.1.2-.1.3l-.3.4-.2.3c0,.1-.1.2-.2.3l-.3.3-.3.3h-.5l-.2.2-.3.3H9.8l-.2.2a.1.1,0,0,0-.1.1H9.2v.2L9,9.4H9l.3-.3h.3l.3-.2h1l-.4.4-.3.3-.3.2H8.6l-.2.3-.3.5-.2.3H7.8l.3-.3a2.5,2.5,0,0,0,.4-.7l.3-.4A.8.8,0,0,0,9,9.2h.1l-.2-.2a.6.6,0,0,1-.1-.4.4.4,0,0,1-.1-.3V7.3h0V6.7h.1c0-.2.1-.3.1-.4H9c.1.1.1.1.1.2v.2a.4.4,0,0,1,.1.3c0,.1.1.2.1.3v1h0v-1h0V6.4a.4.4,0,0,1-.1-.3.4.4,0,0,0-.1-.3V5.5a.3.3,0,0,0,.1-.2V5.1h.1l.2.2a.4.4,0,0,1,.1.3.4.4,0,0,1,.1.3.4.4,0,0,1,.1.3v.2h.1a.4.4,0,0,1,.1-.3V4.8h0l-.3-.3c-.1-.1-.2-.2-.2-.3a1.3,1.3,0,0,1-.1-.6V3.1h0l.3.2c.1.1.2.2.2.3h0a.1.1,0,0,0,.1-.1c0-.1,0-.2.1-.2a.4.4,0,0,1,.1-.3l.3-.5a.1.1,0,0,1,.1-.1h0c0,.1.1.1.1.2s-.1.2-.1.3a.4.4,0,0,1-.1.3.4.4,0,0,1-.1.3l-.3.6h-.1v.4c-.1,0,0,.1,0,.2h0v.9h.1c0-.1.1-.2.2-.4l.3-.3c.1-.1.2-.1.2-.2h.3c0,.1-.1.2-.1.3a.3.3,0,0,1-.1.2.5.5,0,0,1-.2.4.9.9,0,0,1-.3.5l-.3.4-.3.3h-.2a.4.4,0,0,0-.1.3l-.2.3c0,.1-.1.2-.1.3v.3l-.2.3c0,.1-.1.2-.1.3Zm1.3-1.1h.1l.2-.4.4-.5.4-.4a.2.2,0,0,0,.2-.2h.2l.2-.2h0l-.4.2-.3.3-.4.4-.3.3-.2.4v.2Zm-1.3.9h0V8.4A.6.6,0,0,1,9.2,8V7.5a.4.4,0,0,0-.1-.3V6.9h0A.4.4,0,0,1,9,6.5H9v.3H9v1c0,.1.1.2.1.3v.5ZM8.9,6.3h0V7c-.1,0-.1.1-.1.2v.3a.6.6,0,0,0,.1.4v.3c0,.1.1.2.1.4l.2.3h0V8.8c0-.1,0-.1-.1-.2s-.1-.2-.2-.4V8a.4.4,0,0,1-.1-.3V6.8h.1V6.5A.1.1,0,0,0,8.9,6.3Zm.1,0H9a.4.4,0,0,0,.1.3v.2c0,.1,0,.1.1.2v.8a.4.4,0,0,1,.1.3v.4h0c.1,0,.1-.1.1-.2V7.4a.7.7,0,0,1-.1-.5c-.1,0-.1-.1-.1-.2V6.5C9.1,6.4,9,6.4,9,6.3Zm3.3-.4h-.1l-.3.2-.3.3-.2.2-.2.3-.3.4h-.1c-.1.1-.1.1-.1.2h0l.3-.2c0-.1.1-.2.2-.3l.2-.2.3-.3.2-.3a.2.2,0,0,0,.2-.2ZM9.2,8.7a.4.4,0,0,0-.1-.3V6.7h0v.2c0,.2,0,.3-.1.4v.3a.8.8,0,0,0,.1.4v.5l.2.2Zm1.5-1h.1l.2-.2.2-.2.4-.4.3-.3c.1-.1.2-.2.2-.3l.3-.4h-.1v.2l-.3.2c-.1.2-.2.3-.2.4s-.3.3-.4.4l-.2.2-.3.3A.1.1,0,0,1,10.7,7.7Zm-.1,1.1h-1l-.3.2h.5c.1-.1.2-.1.2-.2h.3l.2-.2ZM10,7h0c0-.1.1-.1.1-.2h0l-.2-.2a.4.4,0,0,0-.1-.3A.4.4,0,0,0,9.7,6V5.2h0c0,.1,0,.1-.1.2v.5h0c0,.1.1.2.1.3a.4.4,0,0,0,.1.3c0,.1.1.2.1.4Zm.8,1.7H9.6l-.3.2L9,9.5h.1l.2-.2h.2l.5-.3h.2l.5-.2Zm-.6-2h.1l.4-.5c.2-.1.3-.3.4-.4s.1-.3.2-.4a.4.4,0,0,0,.1-.3h0l-.3.4a.8.8,0,0,1-.2.4l-.3.3c0,.1-.1.2-.2.3h-.2Zm2.2-.8h-.1l-.3.4-.3.3-.3.4-.3.3h-.2l-.2.2h.4l.2-.2.3-.2c.1-.2.1-.3.2-.4l.4-.6Zm-2.3.8a8.3,8.3,0,0,0-.4-1.5v.2a.6.6,0,0,0,.1.4v.4a.4.4,0,0,1,.1.3Zm0,.2h0l.6-.5a2.1,2.1,0,0,0,.4-.6,1.1,1.1,0,0,0,.3-.7h0c0,.1-.1.2-.1.3l-.3.4c0,.1-.1.2-.2.3s-.1.1-.2.2a.2.2,0,0,1-.2.2.2.2,0,0,1-.2.2h0C10.1,6.8,10.1,6.8,10.1,6.9Zm.2-.4h.1l1-1.4h-.1c-.1.1-.2.2-.2.3l-.3.3-.3.3a.3.3,0,0,0-.1.2h-.1ZM8.8,9.7h.7l.2-.2H9.6l-.3.2H9.1Zm1.9-.9h0l-.3.3-.4.2H8.8l.5-.2h.4l.3-.2.3-.2.3-.3Zm.8-4h0a.1.1,0,0,0-.1.1.8.8,0,0,0-.4.4l-.3.3-.3.5h0c0-.1.1-.2.1-.3l.4-.4.2-.3.2-.3Zm-.9-.3a3,3,0,0,0-.2-1c-.1-.1-.2-.1-.2-.2v.2l.2.3a.4.4,0,0,0,.1.3v.4Zm-.5-1.3h0a.6.6,0,0,0-.1.4c0,.1.1.2.1.3s.1.3.2.4.1.1.2.2h.1A1.9,1.9,0,0,1,10.1,3.2Zm.6.9h0c.1,0,.1-.1.2-.2s.1-.3.2-.4.1-.3.1-.4.1-.2.1-.4h0a.4.4,0,0,0-.1.3.4.4,0,0,0-.1.3l-.2.4-.2.2Zm0-.1a.1.1,0,0,1,.1-.1c0-.1.1-.2.1-.3s.1-.3.2-.4.1-.2.1-.3h0c0,.1-.1.2-.2.3s-.1.3-.1.4l-.2.4Zm-.2.4h0V4.1c0-.2-.1-.3-.1-.5l-.2-.3h0a.3.3,0,0,0,.1.2.4.4,0,0,0,.1.3c0,.2,0,.3.1.4Zm-.7.7h0a6.6,6.6,0,0,1,.4,1.5V6.2c0-.1-.1-.2-.1-.3V5.6l-.2-.3V5.1Zm0,.1h0l.3,1.4a3.9,3.9,0,0,0-.3-1.4Zm1.4-2.6a6.1,6.1,0,0,0-.5,1.2l.3-.6A1.4,1.4,0,0,1,11.2,2.6Zm-1,.6.3.5a1.7,1.7,0,0,1,.1.7h0V4a.4.4,0,0,0-.1-.3.4.4,0,0,0-.1-.3Z" fill="#dac6bb"/><path d="M11.2,2.6a1.4,1.4,0,0,0-.2.6l-.3.6" fill="#dac6bb"/><path d="M8.4,10.6,7,14.1H6.7L2,2.8v8.4a5.8,5.8,0,0,0,.1,1.5c.1.4.2.6.4.7l1.2.4v.3H.2v-.3l.9-.3a1.6,1.6,0,0,0,.4-.7c0-.3.1-.8.1-1.4V3.5c0-.5-.1-.8-.1-1a.8.8,0,0,0-.4-.4H.2V1.6H4.6l3.5,8.6m.3.4M11.3,3m0-1.1V1.7h4V2h-.9c-.1.1-.3.2-.3.4a2.5,2.5,0,0,0-.1,1v8.7a2.5,2.5,0,0,0,.1,1c0,.2.2.3.3.4l.9.2v.3H9.8v-.3l1-.2a.8.8,0,0,0,.4-.4c0-.2.1-.5.1-1V3m0-1.1M8.1,10.2" fill="#dac6bb"/></svg>