<svg id="Layer_1" data-name="Layer 1" xmlns="http://www.w3.org/2000/svg" width="64" height="64" viewBox="0 0 64 64"><title>logo-64</title><path d="M37.8,37.5l.9-.6.7-.5,1-.7.8-.7.4-.3.9-.9.4-.3h0a4.7,4.7,0,0,1,.4-1.7,21.3,21.3,0,0,1,1.6-2.5L46,27.9a18.5,18.5,0,0,1,1.4-1.4l1.1-.8a5,5,0,0,1,1.4-.8l.8-.2.2.2c-.1.1-.1.2-.1.4a6.1,6.1,0,0,1-.5,1.2l-.9,1.6-.9,1.2a14.7,14.7,0,0,0-1,1.3,15.9,15.9,0,0,0-1.3,1.3l-1.2.9-1.1.7-.8.2H43l-.8.8-1.2,1-.9.7-.8.6-.7.5-.7.5h-.2a.5.5,0,0,0-.3.5,5.4,5.4,0,0,0-.7,1.3.1.1,0,0,1,.1-.1,5.8,5.8,0,0,1,1.2-1l1-.6,1.4-.7,1.8-.5a12.5,12.5,0,0,1,1.9-.3c.2,0,.2.2.1.3a5.9,5.9,0,0,1-1.3,1.8l-1.5,1.1-1.2.7-1.4.6-1.1.4a1.9,1.9,0,0,1-1,.3l-1,.3h-.3a.1.1,0,0,0-.1.1l-.9,1.4L33,45.4a8.7,8.7,0,0,1-.9,1.1h-.2c0-.1-.1-.1,0-.2a.2.2,0,0,1,.2-.2,17.1,17.1,0,0,1,1.1-1.4l1.7-2.5a9.5,9.5,0,0,1,1-1.7l1-1.9c0-.1.1-.2.1-.3h0a2.1,2.1,0,0,1-.6-1,4.9,4.9,0,0,1-.6-1.7l-.3-1.2c0-.4-.1-.8-.1-1.3a3.4,3.4,0,0,0-.1-1,2.2,2.2,0,0,1,.1-.8v-.6a2.8,2.8,0,0,1,.1-.9c0-.2.1-.5.1-.7s.1-.5.2-.8a4.2,4.2,0,0,1,.7-1.3.2.2,0,0,1,.3,0l.5.7.4.9a2.9,2.9,0,0,1,.2.9,8.3,8.3,0,0,1,.4,1.5c.1.4.1.8.2,1.3s.1.7.1,1V35h.1l.3-.9.6-1.2a3.6,3.6,0,0,1,.4-.9l.4-1.2a.5.5,0,0,0,.2-.4v-.2l-.5-.9-.4-.8c-.1-.3-.1-.6-.2-.8s-.3-1-.4-1.4-.1-.9-.1-1.3v-.8c0-.4.1-.8.1-1.2s.1-.4.2-.6.1-.4.1-.6h.3a1.3,1.3,0,0,1,.7.6,2.4,2.4,0,0,1,.6,1.1,6.5,6.5,0,0,1,.4,1.3l.3,1.3a3.4,3.4,0,0,1,.1,1h.1c0-.1.1-.2.1-.3a5.6,5.6,0,0,1,.4-1.2,2.9,2.9,0,0,1,.2-.9c.1-.2.1-.5.2-.8s.1-.5.2-.8.1-.5.1-.8a3.8,3.8,0,0,0,.1-1v-.7a3.2,3.2,0,0,1-1.3-1,8.3,8.3,0,0,1-.7-1.3,5.9,5.9,0,0,1-.5-2.2c0-.3.1-.6.1-.9a1.1,1.1,0,0,1,.3-.8c0-.2.1-.2.3-.1a3.5,3.5,0,0,1,1.2,1,4.1,4.1,0,0,1,.7,1.1c0,.1.1.3.1.4a.9.9,0,0,0,.1-.5,3.6,3.6,0,0,1,.4-.9,6.1,6.1,0,0,1,.5-1.2,6.3,6.3,0,0,1,1.3-2l.2-.2c.2-.1.2-.1.3.1s.1.4.1.6a4.9,4.9,0,0,1-.1,1.2,5.6,5.6,0,0,1-.4,1.2,11.2,11.2,0,0,1-.5,1.3,10.9,10.9,0,0,1-1.4,2.3h-.2a6.8,6.8,0,0,1-.2,1.4c-.1.2,0,.5,0,.7v.5c-.1.3-.1.7-.2,1s-.1.6-.1.9l-.3,1c0,.2-.1.4-.1.6h0l.3-.4a13.4,13.4,0,0,1,1.1-1.4l1.2-1.3.9-.8a1,1,0,0,1,.5-.4c.1-.1.1-.2.2-.1s.2.2.1.3a2.5,2.5,0,0,1-.2,1.2l-.3,1.1a10.9,10.9,0,0,1-.8,1.5A12,12,0,0,1,44.4,27a8.6,8.6,0,0,1-1.3,1.4,6.9,6.9,0,0,1-1.3,1.1l-.7.5h0l-.5,1.2c-.2.5-.3.9-.5,1.3l-.6,1.3L39,34.9l-.6,1.4-.6,1.1ZM43.2,33h0l.2-.3a12.2,12.2,0,0,1,1.2-1.9A11.5,11.5,0,0,1,46,29.1c.5-.6,1.1-1.1,1.6-1.6l.9-.9.9-.6.6-.5.5-.5-.5.2a5.1,5.1,0,0,0-1.6.9,6.9,6.9,0,0,0-1.3,1.1c-.6.5-1,1-1.5,1.5l-1,1.4a6,6,0,0,0-.9,1.5,3.6,3.6,0,0,0-.4.9A4.3,4.3,0,0,1,43.2,33Zm-5.4,3.6h0v-.9a7.6,7.6,0,0,1-.1-1.5,16.4,16.4,0,0,1-.2-2.2c-.1-.4-.1-.8-.2-1.2s-.1-.7-.2-1-.1-.5-.1-.7a3,3,0,0,1-.2-1,.4.4,0,0,1-.1-.3h0a2.8,2.8,0,0,0-.1.9c0,.3.1.5.1.8v2.7a4.3,4.3,0,0,0,.2,1.1,5.2,5.2,0,0,0,.2,1.1l.3,1,.3,1A.3.3,0,0,0,37.8,36.6Zm-1.3-9.2a.1.1,0,0,1-.1.1,10.4,10.4,0,0,1-.4,1c0,.2-.1.5-.1.7a6.4,6.4,0,0,1-.2.7c0,.4-.1.7-.1,1.1v1.1c0,.5.1,1,.1,1.5s.1.8.2,1.2a9.4,9.4,0,0,0,.4,1.6,5.4,5.4,0,0,0,.7,1.3l.2.4.5-.9-.5-.5a5.3,5.3,0,0,1-.8-1.7l-.3-.8c-.1-.5-.1-1-.2-1.4v-1a3.1,3.1,0,0,1,.1-1v-.7a2,2,0,0,0,.1-.7c0-.2.1-.3.1-.5s.1-.4.2-.6S36.5,27.7,36.5,27.4Zm.3.1h0a3.1,3.1,0,0,0,.2.8,4.4,4.4,0,0,0,.2,1c0,.2.1.5.1.8a3,3,0,0,1,.2,1,2.8,2.8,0,0,1,.1.9,4.1,4.1,0,0,1,.1,1.1,8.8,8.8,0,0,0,.2,1.6V36c0,.2.1.3.1.5a.3.3,0,0,1,.1-.2,3.2,3.2,0,0,0,.3-.9V34.3a1.1,1.1,0,0,0-.1-.5V33a4.5,4.5,0,0,1-.1-1.1c-.2-.7-.3-1.4-.5-2l-.3-1.1-.3-.9Zm13.3-1.9H50c-.2.1-.3.3-.5.5l-1.2.9-1.1,1-.9.9L45.4,30l-1.1,1.5-.5.7-.3.6h.2l1-1.2a6,6,0,0,1,.8-.8l1-1.2,1.1-1.1.8-.9.9-1ZM37.7,36.9l-.4-1.3-.3-1a2.9,2.9,0,0,1-.2-.9,7.7,7.7,0,0,1-.2-1.5,4.9,4.9,0,0,1-.1-1.2V28.5a.1.1,0,0,0-.1.1c0,.3-.1.6-.1.9a7.8,7.8,0,0,0-.2,1.4V32a8.6,8.6,0,0,0,.1,1.6l.3,1.3a3.6,3.6,0,0,0,.4.9,2.4,2.4,0,0,0,.6.9A.2.2,0,0,0,37.7,36.9Zm5.8-3.8h0l.3-.2.8-.7,1.1-.9,1.4-1.5,1.1-1.2,1.1-1.5a11.9,11.9,0,0,0,.9-1.5h-.1l-.4.6-1.1,1.2-1.2,1.3-1.6,1.7-.8.9-1,1.1Zm-.2,4.3h-.2l-.4.2-.9.4-.6.3-1.1.6-.9.4-1.1.6-.7.4-.9.5-.7.4h0l1.1-.3,1.1-.4.8-.3.7-.4.5-.2.9-.6a5.3,5.3,0,0,0,1-.6l.8-.6Zm-2.6-7.3c.1,0,.1,0,.1-.1l.3-.7c0-.1,0-.1-.1-.1a3.5,3.5,0,0,1-.5-.8L40,27.2,39.7,26c-.1-.5-.1-1.1-.2-1.6V23.1a1.5,1.5,0,0,1,.1-.7h-.1v.2c0,.2-.1.4-.1.6s-.1.6-.1.9v1.7l.3,1.3.3,1.1.6,1.4Zm3.2,6.8H42.6l-1.1.2-.6.2-.9.4a2,2,0,0,0-.8.4l-1.3.7a8,8,0,0,0-1.3,1.3l-.3.4.7-.5,1.1-.8.7-.4,1.8-1,1-.3,1.8-.5Zm-2.4-8h0l.4-.3a17.1,17.1,0,0,0,1.8-2l1.4-1.9.9-1.5.5-1.2c0-.1,0-.1.1-.2h-.1c0,.1-.1.2-.1.3l-1.1,1.6a13,13,0,0,1-1,1.5l-1,1.2-.9,1.1-.6.7v.2h-.1C41.6,28.6,41.5,28.7,41.5,28.9Zm8.9-3.2c-.1,0-.1.1-.2.2a2.5,2.5,0,0,1-.4.7L48.9,28l-1.2,1.4-1.4,1.4L45,32.1l-.7.6-.6.5h-.1l.4-.2,1.1-.7.9-.8,1-.9,1.1-1.3L49.8,27Zm-9.3,3.2c-.4-2.1-1-4.1-1.5-6.2v1.1c.1.4.1.9.2,1.4a4,4,0,0,0,.3,1.5c.1.5.3,1,.4,1.4A1.6,1.6,0,0,0,41.1,28.9Zm.2.6h0a10.5,10.5,0,0,0,2.2-2,10.8,10.8,0,0,0,1.8-2.4,15.9,15.9,0,0,0,1.2-2.7h0l-.6,1.1-1,1.7L44,26.5l-.8.9-.8.9-.7.6-.3.3A.4.4,0,0,0,41.3,29.5Zm.5-1.6h.1l.3-.3a43.9,43.9,0,0,0,4-5.6l-.3.4L45,23.5l-1.2,1.4L42.9,26a2.2,2.2,0,0,0-.5.8l-.4.6Zm-5.7,13h.1l.6-.3,1-.5.8-.5.9-.5.7-.4.8-.4.5-.2.9-.4a.5.5,0,0,1,.4-.2h-.3l-.8.3-.9.2-.8.4-.9.4-1.2.8-.9.6Zm7.5-3.5h0l-1.3,1-1.4.9-.9.5-.8.5-.9.4-1.1.4-.9.3h-.5c-.2,0-.2.1-.3.2h.6l1.8-.5,1.4-.6,1.4-.7,1.3-.9a6.9,6.9,0,0,0,1.3-1.1Zm3-16.1h0l-.4.3-1.5,1.5-1.2,1.4a7.6,7.6,0,0,0-1.2,1.9.8.8,0,0,1-.1.4l.7-1L44.4,24l.8-1,1-1.2Zm-3.5-1.4a6.8,6.8,0,0,0-.9-3.7,8.6,8.6,0,0,0-.7-1,1.9,1.9,0,0,0,.2.8,11.2,11.2,0,0,1,.5,1.3l.5,1.2a2.9,2.9,0,0,1,.2.9C43,19.6,43,19.8,43.1,19.9Zm-2.1-5h0a6.6,6.6,0,0,0-.1,1.4,4,4,0,0,0,.3,1.5l.6,1.3a4.3,4.3,0,0,0,.9,1l.3.2A9.2,9.2,0,0,1,41,14.9Zm2.6,3.7h0l.7-.9a8.9,8.9,0,0,0,.8-1.7l.6-1.6a5.9,5.9,0,0,0,.2-1.4v-.3h-.1v.5c-.1.5-.3.9-.4,1.4a10.4,10.4,0,0,0-.4,1l-.8,1.6a4.1,4.1,0,0,1-.5.9C43.6,18.3,43.5,18.4,43.6,18.6Zm0-.5a.8.8,0,0,1,.2-.4l.7-1.4.6-1.3.4-1.2a1.5,1.5,0,0,0,.1-.7h0l-.7,1.2c-.2.6-.5,1.2-.7,1.7a11.2,11.2,0,0,0-.5,1.3C43.6,17.7,43.5,17.9,43.6,18.1Zm-.8,1.7h.1c-.1-.2-.1-.4-.2-.5l-.3-.9-.6-1.7a6.9,6.9,0,0,1-.5-1.3h-.1v.4a3.6,3.6,0,0,1,.2,1,5.6,5.6,0,0,0,.4,1.2,5.9,5.9,0,0,0,.6,1.4Zm-2.9,2.6h-.1a15.7,15.7,0,0,1,1.6,6c0-.2.2-.4.1-.6a3.8,3.8,0,0,0-.1-1,5,5,0,0,0-.2-1.2,4.4,4.4,0,0,0-.2-1,6.1,6.1,0,0,0-.5-1.2,4.1,4.1,0,0,0-.5-.9A.1.1,0,0,0,39.9,22.4Zm0,.5h0l1.3,5.7A15.1,15.1,0,0,0,40,23.1.3.3,0,0,1,39.9,22.9Zm5.8-10.4c-.7.5-2.2,3.9-2.2,4.9.4-.8.7-1.7,1.1-2.5A25.6,25.6,0,0,1,45.7,12.5Zm-4.3,2.3A7.4,7.4,0,0,1,42.8,17a10.9,10.9,0,0,1,.5,2.6h0V18.2a5.7,5.7,0,0,0-.4-1.4,3.1,3.1,0,0,0-.5-1A4.7,4.7,0,0,0,41.4,14.8Z" fill="#dac6bb"/><path d="M45.7,12.5a25.6,25.6,0,0,0-1.1,2.4c-.4.8-.7,1.7-1.1,2.5" fill="#dac6bb"/><path d="M34.1,44.7l-5.3,14H27.6L8.5,13.1V47a31.5,31.5,0,0,0,.4,6.2A4.1,4.1,0,0,0,10.8,56a10.7,10.7,0,0,0,4.6,1.2v1.4l-7.7-.2-6.1.2V57.2A6.7,6.7,0,0,0,5,56a4.4,4.4,0,0,0,1.5-2.7,33.1,33.1,0,0,0,.4-5.4V16a16.5,16.5,0,0,0-.4-3.9A2.8,2.8,0,0,0,5,10.4a17.8,17.8,0,0,0-3.4-.5V8.5l6.1.2,11.2-.2L33.2,43m.9,1.7M45.9,14.1m0-4.3.4-1.1h5l11.1-.2V9.9a16.5,16.5,0,0,0-3.4.5,2.8,2.8,0,0,0-1.5,1.7,16.5,16.5,0,0,0-.4,3.9V51.1a16.5,16.5,0,0,0,.4,3.9A2.8,2.8,0,0,0,59,56.7a17.8,17.8,0,0,0,3.4.5v1.4l-11.1-.2-11.2.2V57.2a19.2,19.2,0,0,0,3.7-.5A2.7,2.7,0,0,0,45.4,55a11.8,11.8,0,0,0,.5-3.9v-37m0-4.3M33.2,43" fill="#dac6bb"/></svg>