<svg id="Layer_1" data-name="Layer 1" xmlns="http://www.w3.org/2000/svg" width="32" height="32" viewBox="0 0 32 32"><title>logo-32</title><path d="M18.6,18.2l.5-.3.3-.2.5-.4.4-.3.2-.2a.8.8,0,0,0,.4-.4.2.2,0,0,0,.2-.2h0a1.9,1.9,0,0,1,.2-.8,5.7,5.7,0,0,1,.8-1.3l.6-.6.6-.7.6-.4.7-.4H25v.2c-.1.2-.1.4-.2.6a5.6,5.6,0,0,1-.5.8l-.4.6-.5.6-.7.6-.5.5-.6.4h-.4a.8.8,0,0,0-.4.4l-.6.5-.5.3-.4.3-.3.2-.4.3h-.1c0,.1-.1.2-.1.3l-.3.6h0l.6-.4c.2-.1.3-.3.5-.3l.7-.4.9-.2h1l-.7.9-.7.5-.6.3-.7.4-.5.2H17.4l-.5.7-.6.9-.5.5h0l.5-.7.9-1.2a4.1,4.1,0,0,1,.5-.9,4.1,4.1,0,0,1,.5-.9h0l-.3-.5-.3-.8c0-.2-.1-.4-.1-.6s-.1-.4-.1-.6V14.9a.9.9,0,0,1,.1-.5v-.3a.6.6,0,0,0,.1-.4l.3-.6h.2l.3.3c0,.1.1.3.1.4l.2.5c0,.2.1.5.1.7a1.5,1.5,0,0,1,.1.7.7.7,0,0,1,.1.5V17h0a.5.5,0,0,0,.2-.4l.3-.6c.1-.1.1-.3.2-.4s.1-.4.2-.6v-.2a.1.1,0,0,0-.1-.1c0-.2-.1-.3-.2-.5l-.2-.4c0-.1-.1-.2-.1-.4s-.1-.4-.2-.6v-.7c-.1-.1-.1-.2,0-.4v-.9c0-.1,0-.2.1-.2h.1l.4.3.3.6c0,.2.1.4.1.6s.1.4.2.6v.5h.1V13c.1-.2.1-.4.2-.6V12a.6.6,0,0,0,.1-.4.6.6,0,0,0,.1-.4V9.9a1,1,0,0,1-.6-.5,2.1,2.1,0,0,1-.4-.6A3.6,3.6,0,0,1,20,7.7V7.3l.2-.4c0-.1,0-.1.1-.1l.6.5a.9.9,0,0,1,.3.6c.1,0,.1.1.1.2V7.9c0-.2.1-.3.1-.5l.3-.6.6-1h.3v.3c.1.2,0,.4,0,.6s-.1.3-.2.5-.1.5-.2.7A2.8,2.8,0,0,1,21.5,9h0c0,.3-.1.5-.1.7s0,.2,0,.4v.2a.9.9,0,0,0-.1.5,4.3,4.3,0,0,0-.1.5c0,.1-.1.3-.1.4v.3h0l.2-.2a1.8,1.8,0,0,1,.5-.7l.6-.6.4-.5L23,10h.2a1.3,1.3,0,0,0-.1.6l-.2.6a2.5,2.5,0,0,1-.4.7l-.6,1-.7.8-.6.5-.4.2h0c-.1.1-.1.3-.2.5l-.3.7c-.1.2-.1.4-.2.6l-.3.6-.3.6-.3.6ZM21.3,16h.1a3.1,3.1,0,0,1,.5-1l.8-.8.7-.8.5-.4.4-.4.3-.2.2-.2h-.2l-.8.5-.6.6a2.3,2.3,0,0,0-.7.7l-.6.7-.4.7-.2.5Zm-2.7,1.8h0v-.4a2.2,2.2,0,0,0-.1-.8,4.1,4.1,0,0,0-.1-1.1v-.6a.7.7,0,0,1-.1-.5v-.3c0-.2-.1-.3-.1-.5H18v.4a.6.6,0,0,0,.1.4c0,.2-.1.4-.1.7a1.3,1.3,0,0,1,.1.6v.5c.1.2.1.4.2.6s.1.3.1.5.1.3.2.5ZM18,13.2a.1.1,0,0,1-.1.1c0,.2-.1.3-.2.5v.4a.4.4,0,0,0-.1.3.9.9,0,0,1-.1.5v.6c0,.2.1.5.1.7a1.3,1.3,0,0,0,.1.6,2.4,2.4,0,0,0,.2.8l.3.6c0,.1.1.1.1.2l.2-.4c0-.1-.1-.2-.2-.3a2,2,0,0,1-.4-.8c0-.1-.1-.3-.1-.4a1.7,1.7,0,0,1-.1-.7V14.6a.4.4,0,0,0,.1-.3V14a.4.4,0,0,0,.1-.3C17.9,13.5,18,13.4,18,13.2Zm.1.1h0v.4c0,.2.1.3.1.5s.1.2.1.4a1.1,1.1,0,0,0,.1.5v.4a1.3,1.3,0,0,0,.1.6v.7a2,2,0,0,1,.1.7v.2h.1c0-.1.1-.2.1-.4v-.8a.6.6,0,0,0-.1-.4v-.5c-.1-.4-.1-.7-.2-1s-.1-.4-.2-.5a.8.8,0,0,0-.2-.5Zm6.5-.9h0l-.2.2-.6.5a1.2,1.2,0,0,0-.5.5l-.5.4-.4.5-.6.8-.2.3-.2.3h.1l.5-.5.4-.4.5-.6.5-.6.4-.4.5-.5Zm-6,5.6a2.5,2.5,0,0,1-.2-.7c-.1-.2-.1-.4-.2-.5s-.1-.3-.1-.5-.1-.5-.1-.7V13.8h-.1v.5a1.7,1.7,0,0,0-.1.7v1.3c.1.2.1.4.2.6s.1.3.1.5l.4.4Zm2.8-1.9h.2l.3-.4.6-.4.7-.8c.2-.2.4-.3.5-.6l.6-.7a2.5,2.5,0,0,0,.4-.7h0l-.2.3-.6.6-.6.6-.7.9c-.2.1-.3.3-.4.4l-.5.6Zm-.1,2.1h-.1c0,.1-.1.1-.2.1l-.4.2-.3.2-.6.2-.4.3-.5.3-.4.2-.4.2-.4.2h.6l.5-.2.4-.2.3-.2h.3l.4-.3.5-.3.4-.3Zm-1.2-3.6h0c0-.1.1-.2.1-.3h0l-.3-.3c-.1-.2-.1-.5-.2-.7a.9.9,0,0,1-.1-.5c-.1-.3-.1-.6-.2-.8v-1h-.1v.3a.9.9,0,0,0-.1.5v.8c0,.2.1.5.1.7l.2.5.3.7Zm1.5,3.3H20.1l-.4.2-.4.2-.6.3a2.3,2.3,0,0,0-.7.7h-.1l.3-.2.6-.4.3-.2.9-.5h.5l.9-.3ZM20.4,14h0l.2-.2.9-.9a8.6,8.6,0,0,0,.7-1,2.5,2.5,0,0,0,.4-.7l.3-.6h-.1a2.2,2.2,0,0,1-.5.8,3.5,3.5,0,0,1-.5.8l-.5.6-.4.5-.3.3h-.1Zm4.4-1.6h-.1a.8.8,0,0,1-.2.4l-.4.6-.6.7a4.6,4.6,0,0,1-.7.7l-.6.6c-.1.2-.3.3-.4.4l-.3.2h.2l.5-.4.4-.4.5-.4.6-.7a4.4,4.4,0,0,0,.8-1.1ZM20.2,14c-.2-1-.4-2-.7-3.1v.6a2,2,0,0,0,.1.7c0,.2.1.5.1.7l.3.7A.5.5,0,0,0,20.2,14Zm.1.3h0a4.8,4.8,0,0,0,1.1-.9,9.4,9.4,0,0,0,.9-1.2,8.4,8.4,0,0,0,.6-1.4h0l-.3.6-.5.8-.4.6-.4.4-.4.5-.4.3h-.1C20.3,14.2,20.3,14.2,20.3,14.3Zm.3-.8h.2a28.3,28.3,0,0,0,2-2.8c-.1.1-.2.1-.2.2l-.4.5-.6.7-.5.6a.5.5,0,0,0-.2.4c-.1.1-.2.2-.2.3S20.6,13.4,20.6,13.5Zm-2.8,6.4h.3l.5-.3.4-.2.5-.3.3-.2.4-.2h.2l.5-.2h0l-.4.2h-.4a.5.5,0,0,0-.4.2l-.4.2-.7.4-.4.3Zm3.7-1.7h0l-.7.5-.7.4-.4.3-.4.2-.5.2-.5.2h-.7c-.1,0-.1,0-.1.1s.2,0,.2-.1l.9-.2.8-.3.6-.4.7-.4.6-.5C21.4,18.3,21.4,18.2,21.5,18.2Zm1.5-8h-.1c0,.1-.1.1-.2.2l-.7.7-.6.7-.6,1h0l.3-.4.8-.9a1,1,0,0,1,.4-.5l.4-.6Zm-1.8-.6a4.1,4.1,0,0,0-.4-1.9c-.1-.1-.2-.3-.4-.4s.1.2.1.4l.3.6c.1.2.1.4.2.6a.6.6,0,0,1,.1.4A.4.4,0,0,1,21.2,9.6Zm-1-2.5h0a1.7,1.7,0,0,0-.1.7,1.4,1.4,0,0,0,.2.7l.3.7.4.5h.1A4.5,4.5,0,0,1,20.2,7.1Zm1.3,1.8h0l.3-.4a3.6,3.6,0,0,0,.4-.9l.3-.7a2,2,0,0,0,.1-.7V6h0a.4.4,0,0,1-.1.3c0,.2-.1.4-.1.6a1.7,1.7,0,0,0-.2.5l-.4.8-.3.5C21.5,8.8,21.4,8.8,21.5,8.9Zm-.1-.2.2-.2.3-.7.3-.7c.1-.2.1-.4.2-.6a.4.4,0,0,1,.1-.3h-.1l-.3.7-.3.8-.3.7Zm-.3.8h0c0-.1-.1-.2-.1-.3V8.8l-.3-.9-.3-.6h0v.2a4.3,4.3,0,0,0,.1.5,1.4,1.4,0,0,0,.2.6c.1.3.1.5.3.7S21,9.4,21.1,9.5Zm-1.5,1.3h0a7.4,7.4,0,0,1,.8,2.9c0-.1.1-.2,0-.3V13c0-.2-.1-.4-.1-.6a4.3,4.3,0,0,0-.1-.5,1.4,1.4,0,0,1-.2-.6l-.3-.5Zm0,.2h0l.7,2.9a8.8,8.8,0,0,0-.6-2.8Zm2.9-5.1a6.6,6.6,0,0,0-1.1,2.4,6.1,6.1,0,0,0,.5-1.2ZM20.4,7.1a3.6,3.6,0,0,1,.7,1,5.9,5.9,0,0,1,.2,1.3h0V8.7a1.9,1.9,0,0,0-.2-.7c0-.2-.1-.3-.2-.5Z" fill="#dac6bb"/><path d="M22.5,5.9l-.6,1.2a6.1,6.1,0,0,1-.5,1.2" fill="#dac6bb"/><path d="M16.8,21.8l-2.6,6.9h-.6L4.2,6.2V22.9a11.5,11.5,0,0,0,.2,3,1.8,1.8,0,0,0,.9,1.4,5.4,5.4,0,0,0,2.3.6v.7H.8v-.7a3.8,3.8,0,0,0,1.7-.6A2,2,0,0,0,3.2,26a16.5,16.5,0,0,0,.2-2.7V7.6a7.8,7.8,0,0,0-.2-1.9,1.1,1.1,0,0,0-.7-.8L.8,4.6V3.9H9.3l7.1,17m.4.9M22.6,6.7m0-2.1.2-.6h7.9v.7L29,4.9a1.1,1.1,0,0,0-.7.8,7.8,7.8,0,0,0-.2,1.9V24.9a8.8,8.8,0,0,0,.2,2c.1.4.4.6.8.8l1.6.2v.7h-11v-.7l1.9-.2a1.6,1.6,0,0,0,.8-.8,8.8,8.8,0,0,0,.2-2V6.7m0-2.1M16.4,20.9" fill="#dac6bb"/></svg>